<?xml version="1.0" encoding="UTF-8" standalone="no"?>
<!-- Created with Inkscape (http://www.inkscape.org/) -->

<svg
   width="150"
   height="52"
   viewBox="0 0 39.687499 13.758334"
   version="1.1"
   id="svg5"
   inkscape:version="1.1.2 (0a00cf5339, 2022-02-04)"
   sodipodi:docname="main_logo.svg"
   xmlns:inkscape="http://www.inkscape.org/namespaces/inkscape"
   xmlns:sodipodi="http://sodipodi.sourceforge.net/DTD/sodipodi-0.dtd"
   xmlns="http://www.w3.org/2000/svg"
   xmlns:svg="http://www.w3.org/2000/svg">
  <sodipodi:namedview
     id="namedview7"
     pagecolor="#ffffff"
     bordercolor="#666666"
     borderopacity="1.0"
     inkscape:pageshadow="2"
     inkscape:pageopacity="0.0"
     inkscape:pagecheckerboard="0"
     inkscape:document-units="mm"
     showgrid="false"
     units="px"
     height="52px"
     showguides="true"
     inkscape:guide-bbox="true"
     inkscape:snap-grids="false"
     inkscape:snap-to-guides="false"
     inkscape:snap-others="true"
     width="150px"
     inkscape:zoom="6.4465058"
     inkscape:cx="47.932943"
     inkscape:cy="21.717191"
     inkscape:window-width="3440"
     inkscape:window-height="1388"
     inkscape:window-x="0"
     inkscape:window-y="24"
     inkscape:window-maximized="1"
     inkscape:current-layer="layer1">
    <sodipodi:guide
       position="0,6.8791667"
       orientation="-1,0"
       id="guide123"
       inkscape:label=""
       inkscape:locked="false"
       inkscape:color="rgb(0,0,255)" />
    <sodipodi:guide
       position="0,0"
       orientation="0,1"
       id="guide125"
       inkscape:label=""
       inkscape:locked="false"
       inkscape:color="rgb(0,0,255)" />
    <sodipodi:guide
       position="0,13.758333"
       orientation="0,1"
       id="guide127"
       inkscape:label=""
       inkscape:locked="false"
       inkscape:color="rgb(0,0,255)" />
    <sodipodi:guide
       position="0,6.879167"
       orientation="0,-1"
       id="guide129" />
    <sodipodi:guide
       position="22.039794,12.232032"
       orientation="1,0"
       id="guide218390" />
    <sodipodi:guide
       position="27.046062,13.249567"
       orientation="0,-1"
       id="guide218392" />
    <sodipodi:guide
       position="15.344418,0.4896853"
       orientation="0,-1"
       id="guide235866" />
    <sodipodi:guide
       position="38.976165,13.148878"
       orientation="1,0"
       id="guide414016" />
  </sodipodi:namedview>
  <defs
     id="defs2" />
  <g
     inkscape:label="Layer 1"
     inkscape:groupmode="layer"
     id="layer1">
    <g
       id="g461014">
      <path
         d="m 4.6551821,5.4885173 c 0.3221079,0 0.6348402,0.030644 0.9342325,0.105083 L 6.7821389,2.3873085 H 6.3935203 c -0.6116212,0 -1.1900814,-0.2250791 -1.6289133,-0.6509486 L 4.3530211,1.3416377 C 4.1659481,1.160102 4.1615434,0.86372998 4.3430792,0.67665696 4.5246149,0.48958393 4.823378,0.48637481 5.0103881,0.66791052 L 5.4219739,1.0584168 c 0.2617009,0.2540242 0.606776,0.384969 0.9714835,0.384969 h 1.0683864 c 0.1546672,0 0.2995182,0.085325 0.3876747,0.2123684 0.088156,0.1271065 0.1085439,0.2940438 0.054429,0.4388949 L 7.4500141,3.3136126 c 0.00289,-6.29e-5 0.00585,0.00887 0.00875,0.00887 0.00101,0 0.00201,0.00862 0.00308,0.00862 H 13.500847 L 14.316405,1.9570343 13.430561,1.6490214 C 13.212404,1.5740789 13.080452,1.3627172 13.118395,1.1351841 13.156401,0.90771385 13.353164,0.75128481 13.583844,0.75128481 h 2.593097 c 0.363386,0 0.659129,0.28353549 0.659129,0.64692159 0,0.5626033 -0.457205,1.0143347 -1.019117,1.0143347 -0.112634,0 -0.224324,-0.021835 -0.33205,-0.058771 L 15.226726,2.2636 14.399527,3.6476761 15.034871,5.553329 c 0.208404,-0.042096 0.422472,-0.068587 0.641384,-0.075572 1.10677,-0.035426 2.142877,0.3862274 2.908284,1.1764898 0.735834,0.7597443 1.122564,1.7613683 1.088774,2.8203791 -0.06494,2.0347731 -1.709771,3.6795431 -3.744544,3.7444811 -0.04235,0.0013 -0.08432,0.002 -0.126351,0.002 -1.057815,0 -2.045848,-0.422598 -2.781995,-1.182594 -0.595512,-0.614956 -0.962171,-1.408239 -1.062471,-2.226251 h -0.758297 c -0.163477,0.125848 -0.37509,0.228666 -0.606525,0.228666 -0.515725,0 -0.9353019,-0.4175638 -0.9353019,-0.9333517 0,-0.1674408 0.044802,-0.3233664 0.1221984,-0.4595339 L 7.1345761,4.1612615 6.4705393,5.9413183 c 1.2229277,0.6518296 2.0574886,1.9400095 2.0574886,3.419793 0,2.1355147 -1.7373314,3.8729087 -3.8728458,3.8729087 -2.1355143,0 -3.87278277,-1.737331 -3.87278277,-3.8727828 0,-2.1354515 1.73726847,-3.8727199 3.87278277,-3.8727199 z M 8.2874065,4.2750281 10.590802,8.1820416 c 8.18e-4,0 0.0016,-0.0039 0.0023,-0.0039 0.0027,0 0.0053,0.00604 0.008,0.0061 L 12.937552,4.275091 H 8.2874065 Z m 5.4735685,0.4409713 -2.351972,3.9336304 c 0.03889,0.069279 0.06852,0.1559256 0.08885,0.2188496 h 0.460982 C 12.121869,7.5470756 12.969643,6.40683 14.139651,5.8480649 Z m 1.229849,4.15248 c 0.03165,-0.062924 0.06802,-0.096022 0.108733,-0.1405093 L 14.541736,7.052556 c -0.674545,0.3728246 -1.167995,1.0608355 -1.310959,1.8159234 z m -1.066436,2.2945236 c 0.516921,0.533658 1.215126,0.820529 1.964173,0.796303 1.373127,-0.04379 2.483043,-1.152705 2.526839,-2.5258321 C 18.438241,8.7180911 18.177295,8.0420986 17.68051,7.5292681 17.183537,7.0161859 16.516605,6.733783 15.802544,6.733783 c -0.02863,0 -0.05726,6.293e-4 -0.08614,0.00151 -0.09451,0.00302 -0.187577,0.011641 -0.27932,0.024477 l 0.564177,1.6926554 c 0.413347,0.096714 0.72243,0.4675252 0.72243,0.9099438 0,0.515725 -0.419577,0.9313378 -0.935239,0.9313378 -0.349354,0 -0.654095,-0.166749 -0.814677,-0.4813684 H 13.23084 c 0.0913,0.5033914 0.328463,0.9736854 0.693548,1.3506644 z m -9.2692059,0.812726 c 1.4415257,0 2.614366,-1.17284 2.614366,-2.614366 0,-0.939581 -0.4984209,-1.7646404 -1.2445736,-2.2255586 l -0.8871024,2.377583 c -0.07079,0.1898416 -0.2508151,0.307069 -0.4421669,0.307069 -0.054807,0 -0.1105575,-0.00956 -0.1649238,-0.029952 C 4.2865734,9.6994536 4.1624873,9.427559 4.2536642,9.183414 l 0.89157,-2.3896644 C 4.986414,6.7634832 4.8227487,6.7469971 4.6551821,6.7469971 c -1.4415256,0 -2.614303,1.1728402 -2.614303,2.6143659 0,1.441526 1.1727144,2.614366 2.614303,2.614366 z"
         id="path1269"
         style="fill:#38bdf8;fill-opacity:1;stroke-width:0.062924" />
      <g
         aria-label="ВЕЛО"
         id="text133762"
         style="font-size:8.81943px;line-height:1.25;fill:#ffffff;stroke-width:0.264583">
        <path
           d="m 25.681971,4.4713348 q 0,0.4938881 -0.167569,0.8290265 -0.167569,0.3263189 -0.458611,0.5291658 -0.282221,0.1940274 -0.679096,0.2822217 -0.388055,0.079375 -0.837846,0.079375 -0.361596,0 -0.749651,-0.044097 Q 22.401143,6.1117488 22.021907,6.032374 V 0.73189633 q 0.30868,-0.0529166 0.679096,-0.0881943 0.370417,-0.0440972 0.732013,-0.0440972 0.61736,0 1.005415,0.13229145 0.388055,0.12347203 0.608541,0.33513842 0.220486,0.2028468 0.299861,0.4586104 0.07937,0.2557633 0.07937,0.5115269 0,0.388055 -0.194027,0.6879156 -0.185208,0.2998606 -0.502708,0.4762492 0.555625,0.2028469 0.749652,0.5468047 0.202847,0.3439578 0.202847,0.7231933 z M 23.106697,3.7305027 v 1.4816642 q 0.114653,0.017639 0.246944,0.026458 0.141111,0.00882 0.273403,0.00882 0.185208,0 0.361596,-0.026458 0.176389,-0.035278 0.30868,-0.1146526 0.141111,-0.088194 0.229306,-0.2381246 0.08819,-0.1587498 0.08819,-0.3968744 0,-0.3968744 -0.255764,-0.5644435 Q 24.112112,3.7305027 23.68878,3.7305027 Z M 23.53003,2.8309208 q 0.414513,0 0.626179,-0.1763887 0.211667,-0.185208 0.211667,-0.5027075 0,-0.1940275 -0.06174,-0.30868 -0.06174,-0.1234721 -0.167569,-0.1852081 -0.105834,-0.070555 -0.246944,-0.088194 -0.141111,-0.026458 -0.291042,-0.026458 -0.123472,0 -0.255763,0.00882 -0.132292,0.00882 -0.238125,0.026458 v 1.2523592 z"
           style="font-weight:bold;font-family:'Ubuntu Mono';-inkscape-font-specification:'Ubuntu Mono Bold'"
           id="path460949" />
        <path
           d="M 26.510981,6.1205683 V 0.66134089 h 3.307286 V 1.5609228 h -2.222496 v 1.2259008 h 1.931455 v 0.8995819 h -1.931455 v 1.5345809 h 2.416524 v 0.8995819 z"
           style="font-weight:bold;font-family:'Ubuntu Mono';-inkscape-font-specification:'Ubuntu Mono Bold'"
           id="path460951" />
        <path
           d="m 30.435611,5.3003613 q 0.229305,-0.079375 0.379235,-0.1852081 0.15875,-0.1146526 0.255764,-0.2557635 0.09701,-0.1499303 0.158749,-0.3263189 0.07056,-0.185208 0.123472,-0.4056938 0.141111,-0.5820824 0.185208,-1.455206 0.0441,-0.881943 0.0441,-2.01083011 h 2.875135 V 6.1205683 h -1.08479 V 1.5609228 h -0.793749 q -0.01764,0.5115269 -0.0441,1.0495122 -0.02646,0.5379852 -0.09701,1.0406928 -0.06174,0.5027075 -0.185208,0.9613179 -0.123472,0.4497909 -0.343958,0.8025681 -0.211666,0.3439578 -0.537985,0.5644436 -0.326319,0.2204857 -0.802568,0.2557635 z"
           style="font-weight:bold;font-family:'Ubuntu Mono';-inkscape-font-specification:'Ubuntu Mono Bold'"
           id="path460953" />
        <path
           d="m 36.115307,3.3865449 q 0,0.3968743 0.02646,0.7496515 0.03528,0.3439578 0.123472,0.5997213 0.09701,0.2557635 0.264583,0.4056938 0.167569,0.1499303 0.449791,0.1499303 0.273402,0 0.440972,-0.1499303 0.176388,-0.1499303 0.264583,-0.4056938 0.09701,-0.2645829 0.123472,-0.6085407 0.03528,-0.3439578 0.03528,-0.7408321 0,-0.3968744 -0.03528,-0.7408322 Q 37.782179,2.2929355 37.685166,2.037172 37.596971,1.7814085 37.429402,1.6314782 37.261833,1.4815479 36.979611,1.4815479 q -0.282222,0 -0.449791,0.1499303 -0.167569,0.1499303 -0.264583,0.4145133 -0.08819,0.2557634 -0.123472,0.5997212 -0.02646,0.3439578 -0.02646,0.7408322 z m -1.102429,0 q 0,-1.4111089 0.520347,-2.1254827 0.520346,-0.72319334 1.446386,-0.72319334 0.961318,0 1.464026,0.72319334 0.502707,0.7143738 0.502707,2.1254827 0,1.4111088 -0.511527,2.1343021 -0.511527,0.7143739 -1.446386,0.7143739 -0.961318,0 -1.472845,-0.7143739 -0.502708,-0.7231933 -0.502708,-2.1343021 z"
           style="font-weight:bold;font-family:'Ubuntu Mono';-inkscape-font-specification:'Ubuntu Mono Bold'"
           id="path460955" />
      </g>
      <g
         aria-label="РЕНТ"
         id="text340656"
         style="font-size:8.81944px;line-height:1.25;stroke-width:0.264583">
        <path
           d="m 23.537866,7.7514296 q 1.040694,0 1.613957,0.4321525 0.573264,0.4233331 0.573264,1.3934715 0,0.9789574 -0.582083,1.4199294 -0.573264,0.432153 -1.631597,0.432153 h -0.388055 v 1.843263 H 22.038561 V 7.8837212 q 0.15875,-0.035278 0.352778,-0.061736 0.202847,-0.026458 0.405694,-0.035278 0.202847,-0.017639 0.396875,-0.026458 0.194027,-0.00882 0.343958,-0.00882 z m 0.123472,0.94368 q -0.09701,0 -0.273403,0.00882 -0.167569,0 -0.264583,0.017639 v 1.7638884 h 0.440972 q 0.520347,0 0.78493,-0.202847 0.264583,-0.211667 0.264583,-0.7143752 0,-0.4762498 -0.264583,-0.6702774 Q 24.09349,8.6951096 23.661338,8.6951096 Z"
           style="font-weight:bold;font-family:'Ubuntu Mono';-inkscape-font-specification:'Ubuntu Mono Bold';fill:#ffffff"
           id="path460976" />
        <path
           d="M 26.527639,13.272399 V 7.8131657 h 3.30729 V 8.7127485 H 27.61243 v 1.2259022 h 1.931458 V 10.838234 H 27.61243 v 1.534582 h 2.416527 v 0.899583 z"
           style="font-weight:bold;font-family:'Ubuntu Mono';-inkscape-font-specification:'Ubuntu Mono Bold';fill:#ffffff"
           id="path460978" />
        <path
           d="m 34.394563,7.8131657 v 5.4592333 h -1.084791 v -2.407707 h -1.446388 v 2.407707 H 30.778592 V 7.8131657 h 1.084792 V 9.965109 h 1.446388 V 7.8131657 Z"
           style="font-weight:bold;font-family:'Ubuntu Mono';-inkscape-font-specification:'Ubuntu Mono Bold';fill:#ffffff"
           id="path460980" />
        <path
           d="m 38.980655,7.8131657 v 0.8995828 h -1.437569 v 4.5596505 h -1.09361 V 8.7127485 H 35.011907 V 7.8131657 Z"
           style="font-weight:bold;font-family:'Ubuntu Mono';-inkscape-font-specification:'Ubuntu Mono Bold';fill:#ffffff"
           id="path460982" />
      </g>
    </g>
  </g>
</svg>
